<?xml version="1.0" encoding="UTF-8"?><svg xmlns="http://www.w3.org/2000/svg" width="100" height="100"><g fill="none" fill-rule="evenodd"><path fill="#ABD4EB" d="M35.7605 12.6421l3.1073 11.5966C26.227 27.962 17 39.6534 17 53.5 17 70.3447 30.6553 84 47.5 84c12.3905 0 23.0554-7.3885 27.8291-18H48V53H89.9971c.002.1664.0029.3331.0029.5C90 76.9721 70.9721 96 47.5 96S5 76.9721 5 53.5c0-19.3998 12.9981-35.7637 30.7605-40.8579z"/><path fill="#FB9A99" d="M48.6443 47.5823L81.4407 15.758C67.893 4.0789 52.9327-.1235 36.5596 3.1509l12.0847 44.4314z"/><path fill="#00AF89" d="M97 49.4453H52.5532L84.293 18.6697C91.8 27.0972 96.0356 37.3557 97 49.4453z"/></g></svg>